<svg xmlns="http://www.w3.org/2000/svg" xmlns:xlink="http://www.w3.org/1999/xlink" width="1920" height="909" viewBox="0 0 1920 909">
  <defs>
    <clipPath id="clip-iPhone_X_XS_11_Pro_1">
      <rect width="1920" height="909"/>
    </clipPath>
  </defs>
  <g id="iPhone_X_XS_11_Pro_1" data-name="iPhone X/XS/11 Pro – 1" clip-path="url(#clip-iPhone_X_XS_11_Pro_1)">
    <rect width="1920" height="909" fill="#fff"/>
    <text id="Contemporary" transform="matrix(-1, 0, 0, 1, 2077.334, 924)" fill="rgba(0,0,0,0.03)" font-size="300" font-family="Arial-BoldMT, Arial" font-weight="700"><tspan x="0" y="0">Contemporary</tspan></text>
    <text id="Curated" transform="matrix(0, -1, -1, 0, 155.834, 988.5)" fill="rgba(255,255,255,0.03)" font-size="300" font-family="Arial-BoldMT, Arial" font-weight="700"><tspan x="0" y="0">C</tspan><tspan y="0" fill="rgba(0,0,0,0.03)">urated</tspan></text>
    <text id="Curated-2" data-name="Curated" transform="matrix(-0.358, 0.934, 0.934, 0.358, 799.942, -188.603)" fill="rgba(255,255,255,0.03)" font-size="300" font-family="Arial-BoldMT, Arial" font-weight="700"><tspan x="0" y="0">C</tspan><tspan y="0" fill="rgba(255,0,0,0.06)">u</tspan><tspan y="0" fill="rgba(255,226,0,0.09)">r</tspan><tspan y="0" fill="rgba(0,255,39,0.1)">a</tspan><tspan y="0" fill="rgba(0,59,255,0.09)">t</tspan><tspan y="0" fill="rgba(59,0,255,0.09)">e</tspan><tspan y="0" fill="rgba(255,0,0,0.09)">d</tspan></text>
    <text id="Curated-3" data-name="Curated" transform="matrix(0.643, 0.766, 0.766, -0.643, 143.364, -133.814)" fill="rgba(255,255,255,0.03)" font-size="300" font-family="Arial-BoldMT, Arial" font-weight="700"><tspan x="0" y="0">C</tspan><tspan y="0" fill="rgba(255,0,0,0.06)">u</tspan><tspan y="0" fill="rgba(255,226,0,0.09)">r</tspan><tspan y="0" fill="rgba(0,255,39,0)">a</tspan><tspan y="0" fill="rgba(0,59,255,0.09)">t</tspan><tspan y="0" fill="rgba(59,0,255,0.09)">e</tspan><tspan y="0" fill="rgba(255,0,0,0.09)">d</tspan></text>
    <text id="Curated-4" data-name="Curated" transform="matrix(0.946, -0.326, -0.326, -0.946, 120.634, 138.508)" fill="rgba(255,255,255,0.03)" font-size="157" font-family="Arial-BoldMT, Arial" font-weight="700"><tspan x="0" y="0">C</tspan><tspan y="0" fill="rgba(255,0,0,0.06)">u</tspan><tspan y="0" fill="rgba(255,226,0,0.09)">r</tspan><tspan y="0" fill="rgba(0,255,39,0.1)">a</tspan><tspan y="0" fill="rgba(0,59,255,0.09)">t</tspan><tspan y="0" fill="rgba(59,0,255,0.09)">e</tspan><tspan y="0" fill="rgba(255,0,0,0.09)">d</tspan></text>
    <text id="Curated-5" data-name="Curated" transform="matrix(0.946, -0.326, -0.326, -0.946, 252.634, 710.508)" fill="rgba(255,255,255,0.03)" font-size="157" font-family="Arial-BoldMT, Arial" font-weight="700"><tspan x="0" y="0">C</tspan><tspan y="0" fill="rgba(255,0,0,0.06)">u</tspan><tspan y="0" fill="rgba(255,226,0,0.09)">r</tspan><tspan y="0" fill="rgba(0,255,39,0.1)">a</tspan><tspan y="0" fill="rgba(0,59,255,0.09)">t</tspan><tspan y="0" fill="rgba(59,0,255,0.09)">e</tspan><tspan y="0" fill="rgba(255,0,0,0.09)">d</tspan></text>
  </g>
</svg>
