<?xml version="1.0" encoding="UTF-8" standalone="no"?>
<!-- Created with Inkscape (http://www.inkscape.org/) -->

<svg
   xmlns:dc="http://purl.org/dc/elements/1.1/"
   xmlns:cc="http://creativecommons.org/ns#"
   xmlns:rdf="http://www.w3.org/1999/02/22-rdf-syntax-ns#"
   xmlns:svg="http://www.w3.org/2000/svg"
   xmlns="http://www.w3.org/2000/svg"
   version="1.1"
   width="892.91339"
   height="161.92912"
   id="svg13895">
  <defs
     id="defs13897">
    <clipPath
       id="clipPath13779">
      <path
         d="m 0,0 595.276,0 0,841.89 L 0,841.89 0,0 z"
         id="path13781" />
    </clipPath>
  </defs>
  <metadata
     id="metadata13900">
    <rdf:RDF>
      <cc:Work
         rdf:about="">
        <dc:format>image/svg+xml</dc:format>
        <dc:type
           rdf:resource="http://purl.org/dc/dcmitype/StillImage" />
        <dc:title></dc:title>
      </cc:Work>
    </rdf:RDF>
  </metadata>
  <g
     transform="translate(29.156001,-371.86811)"
     id="layer1">
    <g
       transform="matrix(5.2083529,0,0,-5.2083529,-1834.3096,4100.4624)"
       id="g13775">
      <g
         clip-path="url(#clipPath13779)"
         id="g13777">
        <g
           transform="translate(365.5405,699.241)"
           id="g13783">
          <path
             d="m 0,0 -1.649,0.495 c -0.33,0.109 -0.484,0.22 -0.462,0.329 0.044,0.11 0.275,0.166 0.693,0.166 l 7.256,0 C 6.234,0.99 6.432,0.924 6.432,0.792 6.454,0.704 6.344,0.616 6.102,0.528 L 4.684,0 C 4.045,-0.242 3.727,-0.671 3.727,-1.286 c 0,-1.913 0.121,-3.827 0.363,-5.739 -2.837,-1.627 -5.97,-2.441 -9.4,-2.441 -2.441,0 -4.596,0.462 -6.465,1.385 -3.782,1.913 -5.926,5.211 -6.431,9.895 -0.045,0.506 -0.066,1.022 -0.066,1.551 0,3.803 1.264,6.783 3.793,8.938 2.88,2.44 6.376,3.66 10.488,3.66 2.375,0 4.915,-0.406 7.619,-1.219 L 3.1,8.84 C 3.078,8.51 2.991,8.356 2.837,8.378 2.705,8.4 2.595,8.586 2.507,8.938 L 1.88,11.841 c -0.088,0.44 -0.209,0.758 -0.363,0.957 -0.154,0.197 -0.484,0.406 -0.989,0.626 -1.254,0.572 -2.771,0.858 -4.552,0.858 -2.771,0 -5.156,-0.649 -7.157,-1.946 -2.881,-1.87 -4.277,-4.926 -4.189,-9.17 0.044,-1.913 0.396,-3.639 1.055,-5.178 0.836,-1.957 2.067,-3.386 3.694,-4.287 1.847,-1.012 3.672,-1.518 5.476,-1.518 1.605,0 3.199,0.396 4.782,1.187 0.967,0.484 1.462,1.177 1.484,2.078 0.067,1.891 -0.054,3.221 -0.362,3.991 C 0.671,-0.319 0.418,-0.132 0,0"
             id="path13785"
             style="fill:#231f20;fill-opacity:1;fill-rule:nonzero;stroke:none" />
        </g>
        <g
           transform="translate(374.9395,710.9499)"
           id="g13787">
          <path
             d="m 0,0 c 0,0.901 -0.022,1.429 -0.066,1.583 -0.066,0.418 -0.253,0.671 -0.561,0.759 l -1.847,0.56 c -0.374,0.11 -0.561,0.231 -0.561,0.363 0,0.11 0.22,0.165 0.66,0.165 l 7.553,0 c 0.44,0 0.66,-0.055 0.66,-0.165 0,-0.132 -0.187,-0.253 -0.561,-0.363 L 3.43,2.342 C 3.1,2.254 2.902,2.001 2.836,1.583 2.792,1.429 2.77,0.901 2.77,0 2.704,-2.111 2.671,-4.937 2.671,-8.477 c 0,-3.474 0.033,-6.563 0.099,-9.267 0,-0.572 0.253,-0.858 0.759,-0.858 l 5.574,0 c 0.528,0 0.896,0.038 1.105,0.115 0.209,0.077 0.368,0.269 0.478,0.577 l 0.924,2.408 c 0.087,0.308 0.208,0.462 0.362,0.462 0.11,0 0.165,-0.077 0.165,-0.231 l -0.165,-5.112 -14.347,0 c -0.44,0 -0.66,0.055 -0.66,0.165 0,0.131 0.187,0.252 0.561,0.363 l 1.847,0.56 c 0.308,0.088 0.495,0.319 0.561,0.693 0.044,0.175 0.066,0.725 0.066,1.649 0.065,2.133 0.099,4.958 0.099,8.476 C 0.099,-4.959 0.065,-2.133 0,0"
             id="path13789"
             style="fill:#231f20;fill-opacity:1;fill-rule:nonzero;stroke:none" />
        </g>
        <g
           transform="translate(404.4919,690.5667)"
           id="g13791">
          <path
             d="m 0,0 -15.964,0 c -0.44,0 -0.66,0.055 -0.66,0.165 0,0.132 0.187,0.253 0.561,0.363 l 1.847,0.561 c 0.308,0.087 0.495,0.318 0.561,0.692 0.044,0.176 0.066,0.725 0.066,1.649 0.066,2.287 0.099,5.112 0.099,8.476 0,3.431 -0.033,6.256 -0.099,8.477 0,0.901 -0.022,1.429 -0.066,1.584 -0.066,0.417 -0.253,0.67 -0.561,0.758 l -1.847,0.561 c -0.374,0.109 -0.561,0.231 -0.561,0.363 0,0.109 0.22,0.165 0.66,0.165 3.804,0 6.915,0.021 9.334,0.065 2.287,0.044 4.222,0.132 5.805,0.264 l 0,-4.452 c 0,-0.418 -0.055,-0.638 -0.164,-0.66 -0.089,-0.022 -0.199,0.143 -0.331,0.495 -0.549,1.473 -0.956,2.297 -1.22,2.473 -0.264,0.177 -1.253,0.264 -2.968,0.264 l -4.519,0 c -0.352,0 -0.572,-0.049 -0.66,-0.148 -0.088,-0.099 -0.131,-0.336 -0.131,-0.709 l -0.1,-8.279 6.432,0 c 0.418,0 0.704,0.038 0.858,0.115 0.154,0.077 0.318,0.303 0.495,0.677 0.153,0.308 0.307,0.703 0.461,1.187 0.066,0.176 0.154,0.253 0.264,0.231 0.132,0 0.198,-0.077 0.198,-0.231 l 0,-6.234 c 0,-0.44 -0.055,-0.682 -0.165,-0.725 -0.154,-0.066 -0.275,0.065 -0.363,0.396 -0.176,0.637 -0.385,1.362 -0.626,2.176 -0.155,0.506 -0.528,0.759 -1.122,0.759 l -6.432,0 0.1,-8.839 c 0,-0.572 0.252,-0.858 0.758,-0.858 l 7.158,0 c 0.527,0 0.895,0.038 1.104,0.115 0.209,0.077 0.374,0.264 0.495,0.561 0.121,0.297 0.423,1.105 0.907,2.424 0.11,0.308 0.242,0.462 0.396,0.462 0.11,0 0.165,-0.077 0.165,-0.231 L 0,0 z"
             id="path13793"
             style="fill:#231f20;fill-opacity:1;fill-rule:nonzero;stroke:none" />
        </g>
        <g
           transform="translate(430.178,690.1384)"
           id="g13795">
          <path
             d="m 0,0 -1.781,0 c -0.77,0.989 -2.265,2.748 -4.486,5.277 -3.21,3.474 -7.817,8.399 -13.819,14.776 -0.044,-1.826 -0.066,-4.398 -0.066,-7.718 0,-3.431 0.033,-6.256 0.099,-8.476 0,-0.902 0.021,-1.441 0.065,-1.617 0.066,-0.396 0.253,-0.638 0.561,-0.725 l 1.88,-0.561 c 0.352,-0.11 0.528,-0.231 0.528,-0.363 0,-0.11 -0.209,-0.165 -0.627,-0.165 l -6.761,0 c -0.44,0 -0.66,0.055 -0.66,0.165 0,0.132 0.187,0.253 0.561,0.363 l 1.847,0.561 c 0.307,0.087 0.494,0.329 0.561,0.725 0.043,0.154 0.066,0.692 0.066,1.617 0.066,2.22 0.099,5.045 0.099,8.476 0,3.32 -0.033,6.145 -0.099,8.476 0,0.836 -0.056,2.188 -0.165,4.057 l 1.715,0 c 0.791,-1.011 2.452,-2.946 4.98,-5.804 L -2.111,4.749 c 0.044,1.627 0.066,4.155 0.066,7.586 0,3.32 -0.033,6.145 -0.099,8.476 0,0.902 -0.022,1.43 -0.066,1.584 -0.066,0.417 -0.264,0.67 -0.593,0.758 l -1.847,0.561 c -0.375,0.109 -0.561,0.231 -0.561,0.363 0,0.11 0.22,0.165 0.659,0.165 l 6.762,0 c 0.418,0 0.627,-0.055 0.627,-0.165 0,-0.132 -0.177,-0.254 -0.528,-0.363 l -1.88,-0.561 c -0.308,-0.088 -0.495,-0.33 -0.561,-0.725 -0.044,-0.176 -0.066,-0.715 -0.066,-1.617 -0.066,-2.331 -0.099,-5.156 -0.099,-8.476 0,-3.431 0.033,-6.256 0.099,-8.476 C -0.198,3.023 -0.132,1.736 0,0"
             id="path13797"
             style="fill:#231f20;fill-opacity:1;fill-rule:nonzero;stroke:none" />
        </g>
        <g
           transform="translate(437.0678,692.3804)"
           id="g13799">
          <path
             d="m 0,0 c -3.584,2.617 -5.276,6.124 -5.079,10.521 0.109,1.936 0.648,3.75 1.616,5.443 1.099,1.913 2.671,3.496 4.716,4.749 2.309,1.408 5.068,2.111 8.279,2.111 2.198,0 4.353,-0.33 6.464,-0.989 l 0,-5.607 c 0,-0.331 -0.065,-0.495 -0.197,-0.495 -0.133,0 -0.265,0.241 -0.396,0.726 -0.331,1.297 -0.682,2.221 -1.056,2.77 -0.505,0.77 -1.297,1.287 -2.374,1.55 -0.814,0.198 -1.715,0.297 -2.705,0.297 -3.606,0 -6.465,-1.077 -8.576,-3.232 -1.847,-1.913 -2.77,-4.563 -2.77,-7.949 0,-1.077 0.109,-2.045 0.33,-2.902 1.055,-3.936 3.539,-6.455 7.454,-7.554 0.791,-0.22 1.715,-0.329 2.771,-0.329 2.946,0 5.134,0.67 6.563,2.012 0.418,0.395 0.857,1.044 1.319,1.946 0.066,0.109 0.231,0.516 0.495,1.22 0.198,0.484 0.363,0.726 0.495,0.726 0.087,0 0.132,-0.066 0.132,-0.198 L 16.557,-1.022 C 13.654,-2.077 11.016,-2.605 8.641,-2.605 5.277,-2.605 2.397,-1.737 0,0"
             id="path13801"
             style="fill:#231f20;fill-opacity:1;fill-rule:nonzero;stroke:none" />
        </g>
        <g
           transform="translate(465.0303,712.912)"
           id="g13803">
          <path
             d="m 0,0 c 0.836,0.198 1.682,0.297 2.54,0.297 2.902,0 5.442,-1.045 7.619,-3.133 1.011,-0.968 1.803,-2.221 2.375,-3.76 0.505,-1.43 0.758,-2.914 0.758,-4.453 0,-1.056 -0.132,-2.034 -0.396,-2.935 -1.033,-3.672 -3.452,-5.97 -7.256,-6.894 -0.77,-0.176 -1.583,-0.264 -2.441,-0.264 -3.1,0 -5.65,1.061 -7.651,3.183 -2.002,2.122 -3.002,4.777 -3.002,7.966 0,1.143 0.154,2.209 0.462,3.199 C -5.848,-3.144 -3.518,-0.88 0,0 m -3.397,0.627 c -4.046,-2.001 -6.344,-5.168 -6.893,-9.499 -0.045,-0.418 -0.066,-0.858 -0.066,-1.319 0,-1.737 0.318,-3.431 0.956,-5.08 0.748,-2.023 1.847,-3.65 3.298,-4.881 2.419,-2.067 5.168,-3.099 8.246,-3.099 1.473,0 3.023,0.241 4.651,0.725 2.154,0.615 4.013,1.648 5.574,3.1 1.671,1.561 2.781,3.397 3.331,5.508 0.286,1.077 0.429,2.21 0.429,3.397 0,3.298 -0.88,6.024 -2.639,8.18 C 11.028,0.671 7.751,2.177 3.662,2.177 2.958,2.177 2.254,2.133 1.551,2.045 -0.341,1.781 -1.99,1.309 -3.397,0.627"
             id="path13805"
             style="fill:#231f20;fill-opacity:1;fill-rule:nonzero;stroke:none" />
        </g>
        <g
           transform="translate(486.8952,702.5231)"
           id="g13807">
          <path
             d="m 0,0 c -0.331,0 -0.649,0.011 -0.957,0.033 l -0.033,6.794 0,1.551 c 0.022,0.615 0.033,0.923 0.033,0.923 0,0.351 0.209,0.616 0.627,0.792 0.33,0.132 0.77,0.198 1.319,0.198 1.319,0 2.441,-0.286 3.364,-0.858 C 6.046,8.377 6.837,6.893 6.728,4.98 6.618,3.023 5.651,1.605 3.826,0.725 2.836,0.241 1.561,0 0,0 m -6.762,11.61 c 0,-0.132 0.187,-0.254 0.561,-0.363 l 1.847,-0.561 c 0.308,-0.088 0.494,-0.341 0.56,-0.758 0.044,-0.154 0.067,-0.682 0.067,-1.584 0.065,-2.331 0.099,-5.156 0.099,-8.476 0,-3.431 -0.034,-6.256 -0.099,-8.477 0,-0.924 -0.023,-1.462 -0.067,-1.616 -0.066,-0.396 -0.252,-0.638 -0.56,-0.726 l -1.847,-0.56 c -0.374,-0.11 -0.561,-0.231 -0.561,-0.363 0,-0.11 0.22,-0.165 0.66,-0.165 l 7.552,0 c 0.441,0 0.661,0.055 0.661,0.165 0,0.132 -0.188,0.253 -0.561,0.363 l -1.847,0.56 c -0.33,0.088 -0.528,0.341 -0.594,0.759 -0.045,0.198 -0.066,0.726 -0.066,1.583 l 0,6.861 c 0.483,-0.023 0.781,-0.023 0.891,0 l 6.959,-7.223 c 2.374,-2.463 6.751,-6.078 8.236,-6.749 2.106,-0.954 6.541,-2.215 9.468,-0.401 0.191,0.119 -3.133,0.248 -4.288,0.428 -1.3,0.202 -3.035,0.95 -3.256,1.057 -2.144,1.03 -4.961,3.534 -6.391,5.03 L 3.43,-1.418 c 2.594,0.615 4.386,1.737 5.376,3.364 0.616,1.033 0.923,2.199 0.923,3.496 0,1.187 -0.252,2.21 -0.758,3.067 -0.945,1.584 -2.221,2.606 -3.827,3.068 -0.901,0.264 -2.395,0.373 -4.485,0.33 l -6.761,-0.132 c -0.44,0 -0.66,-0.056 -0.66,-0.165"
             id="path13809"
             style="fill:#231f20;fill-opacity:1;fill-rule:nonzero;stroke:none" />
        </g>
        <g
           transform="translate(517.1816,690.538)"
           id="g13811">
          <path
             d="m 0,0 -15.963,0 c -0.441,0 -0.66,0.055 -0.66,0.165 0,0.132 0.187,0.253 0.561,0.363 l 1.846,0.561 c 0.308,0.087 0.495,0.318 0.561,0.692 0.044,0.176 0.066,0.725 0.066,1.649 0.066,2.287 0.1,5.112 0.1,8.477 0,3.43 -0.034,6.255 -0.1,8.476 0,0.902 -0.022,1.43 -0.066,1.584 -0.066,0.417 -0.253,0.67 -0.561,0.758 l -1.846,0.561 c -0.374,0.109 -0.561,0.231 -0.561,0.362 0,0.11 0.219,0.166 0.66,0.166 3.803,0 6.915,0.022 9.333,0.066 2.287,0.043 4.222,0.131 5.806,0.263 l 0,-4.452 c 0,-0.418 -0.056,-0.638 -0.166,-0.66 -0.088,-0.022 -0.198,0.143 -0.33,0.495 -0.549,1.473 -0.956,2.297 -1.22,2.473 -0.264,0.177 -1.254,0.264 -2.968,0.264 l -4.518,0 c -0.353,0 -0.573,-0.049 -0.661,-0.148 -0.088,-0.099 -0.131,-0.336 -0.131,-0.709 l -0.1,-8.279 6.433,0 c 0.418,0 0.703,0.038 0.857,0.115 0.154,0.077 0.319,0.303 0.495,0.677 0.154,0.308 0.307,0.703 0.461,1.187 0.066,0.176 0.155,0.253 0.264,0.231 0.133,0 0.198,-0.077 0.198,-0.231 l 0,-6.234 c 0,-0.44 -0.055,-0.682 -0.165,-0.725 -0.154,-0.066 -0.275,0.065 -0.362,0.396 -0.177,0.637 -0.386,1.363 -0.628,2.176 -0.153,0.506 -0.527,0.759 -1.12,0.759 l -6.433,0 0.1,-8.839 c 0,-0.572 0.253,-0.858 0.758,-0.858 l 7.157,0 c 0.528,0 0.897,0.038 1.105,0.115 0.209,0.078 0.374,0.264 0.495,0.561 0.121,0.297 0.423,1.105 0.907,2.424 0.11,0.308 0.242,0.463 0.396,0.463 0.11,0 0.165,-0.078 0.165,-0.232 L 0,0 z"
             id="path13813"
             style="fill:#231f20;fill-opacity:1;fill-rule:nonzero;stroke:none" />
        </g>
      </g>
    </g>
  </g>
</svg>
