<?xml version="1.0" encoding="UTF-8" standalone="no"?>
<!DOCTYPE svg PUBLIC "-//W3C//DTD SVG 1.0//EN" "http://www.w3.org/TR/2001/REC-SVG-20010904/DTD/svg10.dtd">
<!-- Created with Inkscape (http://www.inkscape.org/) -->
<svg
   xmlns:svg="http://www.w3.org/2000/svg"
   xmlns="http://www.w3.org/2000/svg"
   version="1.0"
   width="400"
   height="70"
   id="svg2512">
  <defs
     id="defs2514" />
  <g
     transform="translate(-327.71764,-159.46751)"
     id="layer1">
    <g
       transform="matrix(1.2994207,0,0,1.2994207,-93.125436,-66.166574)"
       id="g2581">
      <path
         d="M 627.85138,194.96125 L 605.92388,194.96125 L 611.34888,174.865 L 592.69263,194.96125 L 505.16638,194.96125 C 505.16638,194.96125 504.84013,194.95625 504.84763,195.15375 C 504.85138,195.2925 504.98513,195.3425 505.16638,195.3425 L 591.05888,196.7175 L 580.29513,208.3125 C 580.29513,208.3125 580.09263,208.4975 580.21888,208.60875 C 580.30013,208.68125 580.41388,208.63125 580.53138,208.51125 L 592.72138,196.74375 L 603.61763,196.92 L 601.55138,206.25625 L 566.32888,225.18 C 566.32888,225.18 566.06013,225.29875 566.16638,225.4575 C 566.23513,225.55875 566.36513,225.54125 566.48388,225.485 L 601.10013,208.265 L 597.18388,225.9575 C 597.18388,225.9575 597.08888,226.24625 597.26763,226.28375 C 597.41388,226.31375 597.48513,226.21875 597.53138,226.0675 L 602.52888,207.5575 L 627.85138,194.96125 z M 594.57013,194.96125 L 606.63013,183.325 L 604.05138,194.96125 L 594.57013,194.96125 z M 605.39263,196.9475 L 618.47763,197.15625 L 603.10513,205.42 L 605.39263,196.9475"
         id="path25"
         style="fill:#000000;fill-opacity:1;fill-rule:nonzero;stroke:none" />
      <path
         d="M 329.76638,201.55625 L 333.58513,201.55625 L 332.08763,208.60625 L 335.60013,208.60625 L 335.04763,211.19625 L 327.71763,211.19625 L 329.76638,201.55625"
         id="path27"
         style="fill:#000000;fill-opacity:1;fill-rule:nonzero;stroke:none" />
      <path
         d="M 346.90763,206.375 C 347.37138,204.2 347.86763,203.8125 348.48013,203.8125 C 349.09638,203.8125 349.42888,204.2 348.96388,206.375 C 348.49138,208.60625 347.97888,208.94 347.39013,208.94 C 346.80263,208.94 346.43513,208.60625 346.90763,206.375 z M 342.95638,206.375 C 342.31763,209.38125 343.53263,211.44875 346.85763,211.44875 C 350.18138,211.44875 352.27763,209.38125 352.91638,206.375 C 353.55388,203.37125 352.34013,201.30125 349.01388,201.30125 C 345.69013,201.30125 343.59388,203.37125 342.95638,206.375"
         id="path29"
         style="fill:#000000;fill-opacity:1;fill-rule:nonzero;stroke:none" />
      <path
         d="M 369.26138,207.63 C 368.69763,210.29 366.32763,211.44875 363.93763,211.44875 C 360.55888,211.44875 359.43513,209.39375 360.08388,206.3375 C 360.62763,203.3325 362.84763,201.30125 366.10763,201.30125 C 368.53638,201.30125 370.38513,202.28875 369.79513,205.1225 L 366.29638,205.1225 C 366.47638,204.025 366.12013,203.8125 365.65263,203.8125 C 364.66513,203.8125 364.35638,204.825 364.02638,206.375 C 363.71513,207.845 363.56388,208.94 364.52263,208.94 C 365.01888,208.94 365.41388,208.6475 365.68263,207.63 L 369.26138,207.63"
         id="path31"
         style="fill:#000000;fill-opacity:1;fill-rule:nonzero;stroke:none" />
      <path
         d="M 378.95513,201.55625 L 382.69263,201.55625 L 381.81263,205.695 L 381.83763,205.695 L 384.68263,201.55625 L 388.71513,201.55625 L 385.17263,206.095 L 387.02513,211.19625 L 382.88638,211.19625 L 381.58888,206.87 L 381.56263,206.87 L 380.64388,211.19625 L 376.90513,211.19625 L 378.95513,201.55625"
         id="path33"
         style="fill:#000000;fill-opacity:1;fill-rule:nonzero;stroke:none" />
      <path
         d="M 400.97388,207.64625 L 399.34388,207.64625 L 398.58888,211.19625 L 394.77013,211.19625 L 396.81888,201.55625 L 400.63638,201.55625 L 399.94638,204.81375 L 401.57388,204.81375 L 402.26638,201.55625 L 406.08388,201.55625 L 404.03763,211.19625 L 400.21888,211.19625 L 400.97388,207.64625"
         id="path35"
         style="fill:#000000;fill-opacity:1;fill-rule:nonzero;stroke:none" />
      <path
         d="M 414.97138,201.55625 L 422.30263,201.55625 L 421.76763,204.0675 L 418.09638,204.0675 L 417.87638,205.09375 L 421.26888,205.09375 L 420.73638,207.6025 L 417.34388,207.6025 L 417.11388,208.6875 L 420.90638,208.6875 L 420.37388,211.19625 L 412.92138,211.19625 L 414.97138,201.55625"
         id="path37"
         style="fill:#000000;fill-opacity:1;fill-rule:nonzero;stroke:none" />
      <path
         d="M 431.42388,201.55625 L 438.75638,201.55625 L 438.22263,204.0675 L 434.55013,204.0675 L 434.33138,205.09375 L 437.72263,205.09375 L 437.18888,207.6025 L 433.79888,207.6025 L 433.56888,208.6875 L 437.36138,208.6875 L 436.82763,211.19625 L 429.37763,211.19625 L 431.42388,201.55625"
         id="path39"
         style="fill:#000000;fill-opacity:1;fill-rule:nonzero;stroke:none" />
      <path
         d="M 451.20763,203.745 L 451.58263,203.745 C 452.19638,203.745 452.50763,203.9725 452.66638,204.36125 C 452.83638,204.76125 452.77138,205.4425 452.57138,206.375 C 452.37138,207.31 452.14763,207.99125 451.80888,208.39125 C 451.48638,208.7775 451.07763,209.005 450.46263,209.005 L 450.09013,209.005 L 451.20763,203.745 z M 445.88763,211.19625 L 450.63763,211.19625 C 453.60388,211.19625 455.88388,209.39375 456.50138,206.48375 C 457.10888,203.625 456.31888,201.55625 452.46013,201.55625 L 447.93388,201.55625 L 445.88763,211.19625"
         id="path41"
         style="fill:#000000;fill-opacity:1;fill-rule:nonzero;stroke:none" />
      <path
         d="M 481.86638,204.3075 L 481.84013,204.3075 L 479.01388,211.19625 L 475.51763,211.19625 L 475.62013,204.3075 L 475.59263,204.3075 L 474.12888,211.19625 L 470.89638,211.19625 L 472.94513,201.55625 L 478.24638,201.55625 L 478.08013,207.3 L 478.10763,207.3 L 480.38138,201.55625 L 485.68388,201.55625 L 483.63388,211.19625 L 480.40388,211.19625 L 481.86638,204.3075"
         id="path43"
         style="fill:#000000;fill-opacity:1;fill-rule:nonzero;stroke:none" />
      <path
         d="M 496.85513,207.3 L 498.46638,203.66625 L 498.49263,203.66625 L 498.48388,207.3 L 496.85513,207.3 z M 491.40513,211.19625 L 495.06638,211.19625 L 495.77763,209.6475 L 498.54263,209.6475 L 498.58763,211.19625 L 502.54013,211.19625 L 501.49013,201.55625 L 496.53888,201.55625 L 491.40513,211.19625"
         id="path45"
         style="fill:#000000;fill-opacity:1;fill-rule:nonzero;stroke:none" />
      <path
         d="M 515.91888,205.575 L 516.30888,203.745 L 516.65513,203.745 C 517.40513,203.745 517.86388,203.89375 517.71513,204.60125 C 517.56388,205.32125 516.97513,205.575 516.24013,205.575 L 515.91888,205.575 z M 510.98763,211.19625 L 514.72513,211.19625 L 515.45388,207.76375 L 515.89763,207.76375 C 516.51138,207.76375 516.71013,207.9525 516.68763,208.4325 C 516.64638,209.26 516.50763,210.475 516.57888,211.19625 L 520.32013,211.19625 C 520.18888,209.74125 520.50388,208.3825 520.46638,207.5525 C 520.43513,206.81625 520.01388,206.40375 519.10138,206.3225 L 519.10388,206.2975 C 520.61888,205.95 521.26638,205.1075 521.50138,204 C 521.89013,202.185 520.80638,201.55625 518.73513,201.55625 L 513.03513,201.55625 L 510.98763,211.19625"
         id="path47"
         style="fill:#000000;fill-opacity:1;fill-rule:nonzero;stroke:none" />
      <path
         d="M 532.40513,204.14625 L 530.03013,204.14625 L 530.58263,201.55625 L 539.15263,201.55625 L 538.60138,204.14625 L 536.22388,204.14625 L 534.72638,211.19625 L 530.90763,211.19625 L 532.40513,204.14625"
         id="path49"
         style="fill:#000000;fill-opacity:1;fill-rule:nonzero;stroke:none" />
      <path
         d="M 547.91763,201.55625 L 551.74013,201.55625 L 549.68888,211.19625 L 545.87013,211.19625 L 547.91763,201.55625"
         id="path51"
         style="fill:#000000;fill-opacity:1;fill-rule:nonzero;stroke:none" />
      <path
         d="M 561.03888,201.55625 L 565.61513,201.55625 L 566.41888,207.39125 L 566.44513,207.39125 L 567.68513,201.55625 L 570.78513,201.55625 L 568.73388,211.19625 L 564.15513,211.19625 L 563.36263,205.32125 L 563.33263,205.32125 L 562.08388,211.19625 L 558.98763,211.19625 L 561.03888,201.55625"
         id="path53"
         style="fill:#000000;fill-opacity:1;fill-rule:nonzero;stroke:none" />
    </g>
  </g>
</svg>
